<svg class="prefix__svg-icon" style="width:1em;height:1em;vertical-align:middle" viewBox="0 0 1024 1024"
    xmlns="http://www.w3.org/2000/svg" fill="currentColor" overflow="hidden">
    <path
        d="M512 993.882C245.85 993.882 30.118 778.15 30.118 512S245.85 30.118 512 30.118 993.882 245.85 993.882 512 778.15 993.882 512 993.882zm0-60.235c232.87 0 421.647-188.777 421.647-421.647S744.87 90.353 512 90.353 90.353 279.13 90.353 512 279.13 933.647 512 933.647z"
        fill="#00419e" />
    <path
        d="M510.133 778.511a43.76 43.76 0 110-87.522 43.76 43.76 0 010 87.522zM391.83 433.815a30.66 30.66 0 01-30.208-34.425c1.987-17.016 5.15-30.93 9.487-41.743a124.326 124.326 0 0133.4-46.592 148.962 148.962 0 0151.11-30.238 180.616 180.616 0 0159.512-9.758c42.165 0 77.252 12.408 105.322 37.255 28.07 24.757 42.134 57.826 42.134 99.087 0 18.553-3.614 35.359-10.842 50.417-7.168 15.09-22.468 33.883-45.87 56.35-23.46 22.498-38.941 38.49-46.621 48.008a98.244 98.244 0 00-17.348 34.063c-2.108 6.957-3.614 15.18-4.427 24.636-1.446 15.963-14.276 28.612-30.299 28.612a30.66 30.66 0 01-30.328-33.641c1.054-10.963 2.65-20.51 4.879-28.642 4.126-15.51 10.39-29.064 18.763-40.66 8.343-11.624 23.401-28.671 45.177-51.169 21.805-22.468 35.84-38.852 42.164-49.001 6.204-10.21 12.74-26.805 12.74-46.984s-10.632-36.593-24.937-52.134c-14.397-15.54-35.268-23.34-62.645-23.34-53.429 0-83.727 27.497-90.835 82.492-2.018 15.48-14.607 27.407-30.208 27.407h-.12z"
        fill="#00419e" />
</svg>